<svg xmlns="http://www.w3.org/2000/svg" xmlns:xlink="http://www.w3.org/1999/xlink" width="51" height="51" viewBox="0 0 51 51">
  <defs>
    <clipPath id="clip-path">
      <rect id="Rectangle_1351" data-name="Rectangle 1351" width="51" height="51" transform="translate(-77 8576)" fill="#d29e10" stroke="#707070" stroke-width="1"/>
    </clipPath>
  </defs>
  <g id="Mask_Group_105" data-name="Mask Group 105" transform="translate(77 -8576)" clip-path="url(#clip-path)">
    <g id="download_1_" data-name="download (1)" transform="translate(-77 8576)">
      <g id="Group_3631" data-name="Group 3631">
        <g id="Group_3630" data-name="Group 3630">
          <path id="Path_274" data-name="Path 274" d="M40.306,31.593a5.016,5.016,0,0,0-3.638-1.668,5.187,5.187,0,0,0-3.681,1.658l-3.4,3.391c-.28-.151-.56-.291-.829-.431-.388-.194-.753-.377-1.066-.57A36.969,36.969,0,0,1,18.832,25.9a21.81,21.81,0,0,1-2.906-4.585c.883-.807,1.7-1.647,2.5-2.454.3-.3.6-.614.9-.915a4.938,4.938,0,0,0,0-7.449L16.389,7.557c-.334-.334-.678-.678-1-1.023-.646-.667-1.324-1.356-2.024-2A5.1,5.1,0,0,0,9.758,2.95,5.273,5.273,0,0,0,6.1,4.532l-.022.022L2.417,8.246A7.875,7.875,0,0,0,.081,13.251a18.869,18.869,0,0,0,1.378,7.987A46.346,46.346,0,0,0,9.694,34.973,50.654,50.654,0,0,0,26.561,48.18a26.28,26.28,0,0,0,9.472,2.8c.226.011.463.022.678.022a8.111,8.111,0,0,0,6.211-2.669c.011-.022.032-.032.043-.054a24.47,24.47,0,0,1,1.884-1.948c.463-.441.936-.9,1.4-1.389a5.37,5.37,0,0,0,1.625-3.724,5.173,5.173,0,0,0-1.658-3.692ZM44.16,42.927c-.011,0-.011.011,0,0-.42.452-.85.861-1.313,1.313a28.3,28.3,0,0,0-2.077,2.153A5.189,5.189,0,0,1,36.722,48.1c-.161,0-.334,0-.5-.011a23.346,23.346,0,0,1-8.4-2.519A47.814,47.814,0,0,1,11.943,33.132a43.7,43.7,0,0,1-7.75-12.906,15.369,15.369,0,0,1-1.206-6.738,4.941,4.941,0,0,1,1.485-3.2l3.67-3.67A2.447,2.447,0,0,1,9.78,5.856a2.3,2.3,0,0,1,1.572.753l.032.032c.657.614,1.281,1.249,1.938,1.927.334.344.678.689,1.023,1.044l2.939,2.939a2.054,2.054,0,0,1,0,3.337c-.312.312-.614.624-.926.926-.9.926-1.765,1.787-2.7,2.626-.022.022-.043.032-.054.054a2.2,2.2,0,0,0-.56,2.443l.032.1a23.592,23.592,0,0,0,3.477,5.673l.011.011a39.507,39.507,0,0,0,9.558,8.7,14.7,14.7,0,0,0,1.324.721c.388.194.753.377,1.066.57.043.022.086.054.129.075a2.333,2.333,0,0,0,1.066.269,2.3,2.3,0,0,0,1.636-.743l3.681-3.681a2.435,2.435,0,0,1,1.625-.807,2.192,2.192,0,0,1,1.55.786l.022.022,5.931,5.931A2.128,2.128,0,0,1,44.16,42.927Z" fill="#d29e10"/>
          <path id="Path_275" data-name="Path 275" d="M27.562,12.132A13.853,13.853,0,0,1,38.842,23.412a1.444,1.444,0,0,0,1.432,1.206,1.922,1.922,0,0,0,.248-.022,1.455,1.455,0,0,0,1.195-1.679A16.751,16.751,0,0,0,28.068,9.268a1.461,1.461,0,0,0-1.679,1.184A1.437,1.437,0,0,0,27.562,12.132Z" fill="#d29e10"/>
          <path id="Path_276" data-name="Path 276" d="M50.941,22.5A27.582,27.582,0,0,0,28.466.022a1.451,1.451,0,1,0-.474,2.863A24.636,24.636,0,0,1,48.078,22.971a1.444,1.444,0,0,0,1.432,1.206,1.922,1.922,0,0,0,.248-.022A1.426,1.426,0,0,0,50.941,22.5Z" fill="#d29e10"/>
        </g>
      </g>
    </g>
  </g>
</svg>
