<svg id="logo_vmms" data-name="logo vmms" xmlns="http://www.w3.org/2000/svg" width="170" height="44" viewBox="0 0 170 44">
  <g id="Group_6" data-name="Group 6" transform="translate(0 0.001)">
    <path id="Path_2" data-name="Path 2" d="M0,13.034H14.076l9.341,12.288s3.391-4.073,6.782-7.807C32.5,15,38.068,9.708,39.54,8.486,43.378,5.227,47.089,2.173,50.1,0h4.222S45.17,8.146,41.011,13.713A129.051,129.051,0,0,0,23.352,43.986Z"/>
    <path id="Path_3" data-name="Path 3" d="M13.761,12.21v2.048H10.5V9.2H43.45l-3.518,3.071Z" transform="translate(-3.782 -3.314)"/>
    <path id="Path_4" data-name="Path 4" d="M10.5,35.9l3.261,4.031V51.447h9.532L25.66,54.39H10.5Z" transform="translate(-3.782 -10.4)"/>
    <path id="Path_5" data-name="Path 5" d="M40.379,44.5,39.1,47.438H59.251V16.6L55.99,20.183V44.5Z" transform="translate(-14.084 -3.448)"/>
    <path id="Path_6" data-name="Path 6" d="M75.6,9.2h9.532l9.6,9.458,9.6-9.458h9.532V47.3h-9.532V22.7l-9.6,9.594L85.2,22.837V47.3H75.6Z" transform="translate(-27.749 -3.314)"/>
    <path id="Path_7" data-name="Path 7" d="M143.3,9.2h9.6l9.6,9.458,9.6-9.458h9.469V47.3h-9.532V22.7l-9.6,9.594L152.9,22.837V47.3h-9.6Z" transform="translate(-52.599 -3.314)" fill="#f1c40f"/>
    <path id="Path_8" data-name="Path 8" d="M239.222,9.268l-5.435,9.526H221.245a1.7,1.7,0,0,0-1.539,1.713,1.629,1.629,0,0,0,.453,1.133,1.443,1.443,0,0,0,1.082.444h10.368a14.194,14.194,0,0,1,7.805,2.878,12.64,12.64,0,0,1,4.478,11.581c-.576,3.7-2.431,6.236-5.375,8.635s-8,2.125-10.685,2.125H208l4.862-9.457h16.376c1.407.068,5.375.342,5.184-3.152-.064-1.3-.768-3.152-3.839-3.152-2.431,0-8.958.068-8.958.068s-7.358.411-10.428-6.51a11.3,11.3,0,0,1,3.775-13.84C217.532,9.48,219,9.2,225.977,9.2,231.736,9.2,239.222,9.268,239.222,9.268Z" transform="translate(-76.323 -3.314)" fill="#f1c40f"/>
  </g>
  <path id="Path_9" data-name="Path 9" d="M261.1,0a3.122,3.122,0,0,0-3.2,2.943,3.08,3.08,0,0,0,3.2,2.943,3.122,3.122,0,0,0,3.2-2.943A3.122,3.122,0,0,0,261.1,0Zm0,5.31a2.449,2.449,0,0,1-2.559-2.367A2.491,2.491,0,0,1,261.1.576a2.449,2.449,0,0,1,2.559,2.367A2.491,2.491,0,0,1,261.1,5.31Z" transform="translate(-94.298 0.001)" fill="#f1c40f"/>
  <path id="Path_10" data-name="Path 10" d="M262.391,3.891a1.147,1.147,0,0,0,.512-.256.874.874,0,0,0,.256-1.023c-.192-.576-.96-.512-.96-.512h-1.535L260.6,5.234h.512V3.954h.7l.96,1.279h.7Zm-1.216-.384v-.9h.9c.192,0,.576.064.576.448,0,.448-.512.448-.512.448Z" transform="translate(-95.271 -0.754)" fill="#f1c40f"/>
</svg>
