<svg id="logo" xmlns="http://www.w3.org/2000/svg" xmlns:xlink="http://www.w3.org/1999/xlink" width="24" height="9" viewBox="0 0 24 9">
  <defs>
    <clipPath id="clip-path">
      <rect id="Rectangle_1046" data-name="Rectangle 1046" width="24" height="9" transform="translate(0)" fill="#cb1515"/>
    </clipPath>
  </defs>
  <g id="Mask_Group_68" data-name="Mask Group 68" transform="translate(0)" clip-path="url(#clip-path)">
    <g id="logo_vmms" data-name="logo vmms" transform="translate(0 1.54)">
      <g id="Group_6" data-name="Group 6" transform="translate(0 0)">
        <path id="Path_2" data-name="Path 2" d="M0,1.753H1.971L3.279,3.407s.475-.548.95-1.05c.323-.338,1.1-1.05,1.308-1.215C6.074.7,6.593.292,7.014,0h.591A17.381,17.381,0,0,0,5.742,1.845,17.216,17.216,0,0,0,3.27,5.917Z"/>
        <path id="Path_3" data-name="Path 3" d="M12.749,11.2v.29h-.457v-.716h4.614l-.493.435Z" transform="translate(-11.352 -9.937)"/>
        <path id="Path_4" data-name="Path 4" d="M12.293,42.029l.457.571v1.631h1.335l.331.417H12.293Z" transform="translate(-11.352 -38.729)"/>
        <path id="Path_5" data-name="Path 5" d="M45.955,23.384l-.179.417H48.6V19.434l-.457.507v3.442Z" transform="translate(-42.273 -17.883)"/>
        <path id="Path_6" data-name="Path 6" d="M88.507,10.771h1.335l1.344,1.262,1.344-1.262h1.335v5.085H92.53V12.572l-1.344,1.28L89.851,12.59v3.265H88.507Z" transform="translate(-81.735 -9.937)"/>
        <path id="Path_7" data-name="Path 7" d="M167.766,10.771h1.344l1.344,1.262,1.344-1.262h1.326v5.085h-1.335V12.572l-1.344,1.28L169.11,12.59v3.265h-1.344Z" transform="translate(-154.928 -9.937)" fill="#f1c40f"/>
        <path id="Path_8" data-name="Path 8" d="M247.884,10.78l-.761,1.271h-1.756a.232.232,0,0,0-.216.229.212.212,0,0,0,.064.151.207.207,0,0,0,.151.059h1.452a2.048,2.048,0,0,1,1.093.384,1.647,1.647,0,0,1,.627,1.545,1.764,1.764,0,0,1-.753,1.152,2.563,2.563,0,0,1-1.5.284h-2.777l.681-1.262h2.293c.2.009.753.046.726-.421-.009-.174-.107-.421-.537-.421-.34,0-1.254.009-1.254.009a1.585,1.585,0,0,1-1.46-.869,1.469,1.469,0,0,1,.529-1.847c.358-.237.565-.275,1.541-.275C246.836,10.771,247.884,10.78,247.884,10.78Z" transform="translate(-224.878 -9.937)" fill="#f1c40f"/>
      </g>
      <path id="Path_9" data-name="Path 9" d="M302.38,0a.439.439,0,0,0-.448.417.433.433,0,0,0,.448.417.439.439,0,0,0,.448-.417A.439.439,0,0,0,302.38,0Zm0,.752a.341.341,0,0,1-.248-.092.348.348,0,0,1-.11-.243A.35.35,0,0,1,302.38.08a.341.341,0,0,1,.248.092.348.348,0,0,1,.11.243A.35.35,0,0,1,302.38.751Z" transform="translate(-278.828 0.002)" fill="#f1c40f"/>
      <path id="Path_10" data-name="Path 10" d="M305.344,2.709a.16.16,0,0,0,.072-.036.125.125,0,0,0,.036-.145c-.027-.082-.134-.072-.134-.072H305.1l-.009.444h.072V2.718h.1l.134.181h.1Zm-.17-.054V2.528h.125c.027,0,.081.009.081.063s-.072.063-.072.063Z" transform="translate(-281.747 -2.265)" fill="#f1c40f"/>
    </g>
  </g>
</svg>
